# Blender v2.79 (sub 0) OBJ File: ''
# www.blender.org
mtllib Bishop.mtl
o Cube
v 0.481931 -0.481931 -0.481931
v 0.481931 -0.481931 0.481931
v -0.481931 -0.481931 0.481931
v -0.481931 -0.481931 -0.481931
v 0.307615 -0.191518 -0.307615
v 0.307615 -0.191518 0.307616
v -0.307616 -0.191518 0.307615
v -0.307615 -0.191518 -0.307615
v 0.187231 -0.202550 -0.187230
v 0.187230 -0.202550 0.187231
v -0.187231 -0.202550 0.187231
v -0.187231 -0.202550 -0.187231
v 0.107224 0.885231 -0.107224
v 0.107224 0.885231 0.107224
v -0.107224 0.885231 0.107224
v -0.107224 0.885231 -0.107224
v 0.187231 1.123065 -0.187230
v 0.187230 1.123065 0.187231
v -0.187231 1.123065 0.187231
v -0.187231 1.123065 -0.187231
v 0.098754 0.941426 -0.417172
v -0.098754 0.941426 -0.417172
v 0.098754 1.066871 -0.417172
v -0.098754 1.066871 -0.417172
v 0.111646 0.933237 0.413069
v -0.111647 0.933237 0.413069
v 0.111646 1.075059 0.413069
v -0.111647 1.075059 0.413069
v 0.094986 1.396961 -0.094986
v 0.094986 1.396961 0.094986
v -0.094986 1.396961 0.094986
v -0.094986 1.396961 -0.094986
vn 0.0000 -1.0000 -0.0000
vn 0.0913 0.9958 0.0000
vn 0.8574 0.5146 0.0000
vn -0.0000 0.5146 0.8574
vn -0.8574 0.5146 -0.0000
vn 0.0000 0.5146 -0.8574
vn -0.0000 0.0734 0.9973
vn -0.0000 0.9958 0.0913
vn 0.0000 0.9958 -0.0913
vn -0.0913 0.9958 -0.0000
vn -0.0000 -0.9879 0.1551
vn 0.9973 0.0734 0.0000
vn -0.9973 0.0734 -0.0000
vn 0.0000 0.0734 -0.9973
vn -0.9477 0.3192 -0.0000
vn 0.9478 -0.3188 0.0000
vn -0.9478 -0.3188 -0.0000
vn 0.0000 0.9714 -0.2374
vn 0.0000 0.0000 -1.0000
vn 0.9536 -0.2477 -0.1712
vn 0.0000 -0.9840 -0.1784
vn -0.9536 -0.2477 -0.1712
vn -0.0000 0.0000 1.0000
vn -0.9645 -0.2305 0.1291
vn 0.9645 -0.2305 0.1291
vn -0.0000 0.9781 0.2079
vn 0.0000 1.0000 0.0000
vn 0.0000 0.3192 -0.9477
vn -0.0000 0.3192 0.9477
vn 0.9477 0.3192 0.0000
usemtl Material
s off
f 1//1 2//1 3//1 4//1
f 8//2 7//2 11//2 12//2
f 1//3 5//3 6//3 2//3
f 2//4 6//4 7//4 3//4
f 3//5 7//5 8//5 4//5
f 5//6 1//6 4//6 8//6
f 11//7 10//7 14//7 15//7
f 5//8 8//8 12//8 9//8
f 7//9 6//9 10//9 11//9
f 6//10 5//10 9//10 10//10
f 15//11 14//11 25//11 26//11
f 10//12 9//12 13//12 14//12
f 12//13 11//13 15//13 16//13
f 9//14 12//14 16//14 13//14
f 20//15 19//15 31//15 32//15
f 14//16 13//16 17//16 18//16
f 16//17 15//17 19//17 20//17
f 20//18 17//18 23//18 24//18
f 21//19 22//19 24//19 23//19
f 17//20 13//20 21//20 23//20
f 13//21 16//21 22//21 21//21
f 16//22 20//22 24//22 22//22
f 26//23 25//23 27//23 28//23
f 19//24 15//24 26//24 28//24
f 14//25 18//25 27//25 25//25
f 18//26 19//26 28//26 27//26
f 29//27 32//27 31//27 30//27
f 17//28 20//28 32//28 29//28
f 19//29 18//29 30//29 31//29
f 18//30 17//30 29//30 30//30
