# Blender v2.79 (sub 0) OBJ File: ''
# www.blender.org
mtllib Horse.mtl
o Cube
v 0.357805 -0.448367 -0.357805
v 0.357805 -0.448367 0.357805
v -0.357805 -0.448367 0.357805
v -0.357805 -0.448367 -0.357805
v 0.286192 -0.178180 -0.286192
v 0.286192 -0.178180 0.286192
v -0.286192 -0.178180 0.286192
v -0.286192 -0.178180 -0.286192
v 0.157110 -0.179022 -0.157110
v 0.157110 -0.179022 0.157110
v -0.157110 -0.179022 0.157110
v -0.157110 -0.179022 -0.157110
v 0.157110 0.837420 -0.157110
v 0.157110 0.837420 0.157110
v -0.157110 0.837420 0.157110
v -0.157110 0.837420 -0.157110
v 0.036137 1.096200 -0.036137
v 0.036137 1.096200 0.036137
v -0.036137 1.096200 0.036137
v -0.036137 1.096200 -0.036137
vn 0.0000 -1.0000 0.0000
vn 0.0065 1.0000 0.0000
vn 0.9666 0.2562 0.0000
vn -0.0000 0.2562 0.9666
vn -0.9666 0.2562 -0.0000
vn 0.0000 0.2562 -0.9666
vn -1.0000 0.0000 -0.0000
vn -0.0000 1.0000 0.0065
vn 0.0000 1.0000 -0.0065
vn -0.0065 1.0000 -0.0000
vn -0.0000 0.4235 0.9059
vn 0.0000 0.0000 -1.0000
vn -0.0000 0.0000 1.0000
vn 1.0000 0.0000 0.0000
vn 0.0000 1.0000 0.0000
vn 0.9059 0.4235 0.0000
vn -0.9059 0.4235 -0.0000
vn 0.0000 0.4235 -0.9059
usemtl Material
s off
f 1//1 2//1 3//1 4//1
f 8//2 7//2 11//2 12//2
f 1//3 5//3 6//3 2//3
f 2//4 6//4 7//4 3//4
f 3//5 7//5 8//5 4//5
f 5//6 1//6 4//6 8//6
f 12//7 11//7 15//7 16//7
f 5//8 8//8 12//8 9//8
f 7//9 6//9 10//9 11//9
f 6//10 5//10 9//10 10//10
f 15//11 14//11 18//11 19//11
f 9//12 12//12 16//12 13//12
f 11//13 10//13 14//13 15//13
f 10//14 9//14 13//14 14//14
f 17//15 20//15 19//15 18//15
f 14//16 13//16 17//16 18//16
f 16//17 15//17 19//17 20//17
f 13//18 16//18 20//18 17//18
