# Blender v2.79 (sub 0) OBJ File: ''
# www.blender.org
mtllib Pawn.mtl
o Cube
v 0.481931 -0.481931 -0.481931
v 0.481931 -0.481931 0.481931
v -0.481931 -0.481931 0.481931
v -0.481931 -0.481931 -0.481931
v 0.307615 -0.191518 -0.307615
v 0.307615 -0.191518 0.307616
v -0.307616 -0.191518 0.307615
v -0.307615 -0.191518 -0.307615
v 0.040160 0.513118 -0.040160
v 0.040160 0.513118 0.040160
v -0.040160 0.513118 0.040160
v -0.040160 0.513118 -0.040160
vn 0.0000 -1.0000 -0.0000
vn -0.9349 0.3549 -0.0000
vn 0.8574 0.5146 0.0000
vn -0.0000 0.5146 0.8574
vn -0.8574 0.5146 -0.0000
vn 0.0000 0.5146 -0.8574
vn 0.0000 1.0000 0.0000
vn 0.0000 0.3549 -0.9349
vn -0.0000 0.3549 0.9349
vn 0.9349 0.3549 0.0000
usemtl Material
s off
f 1//1 2//1 3//1 4//1
f 8//2 7//2 11//2 12//2
f 1//3 5//3 6//3 2//3
f 2//4 6//4 7//4 3//4
f 3//5 7//5 8//5 4//5
f 5//6 1//6 4//6 8//6
f 9//7 12//7 11//7 10//7
f 5//8 8//8 12//8 9//8
f 7//9 6//9 10//9 11//9
f 6//10 5//10 9//10 10//10
