# Blender v2.79 (sub 0) OBJ File: ''
# www.blender.org
mtllib Queen.mtl
o Cube
v 0.357805 -0.448367 -0.357805
v 0.357805 -0.448367 0.357805
v -0.357805 -0.448367 0.357805
v -0.357805 -0.448367 -0.357805
v 0.286192 -0.178180 -0.286192
v 0.286192 -0.178180 0.286192
v -0.286192 -0.178180 0.286192
v -0.286192 -0.178180 -0.286192
v 0.157110 -0.179022 -0.157110
v 0.157110 -0.179022 0.157110
v -0.157110 -0.179022 0.157110
v -0.157110 -0.179022 -0.157110
v 0.232313 0.874924 -0.232313
v 0.232313 0.874924 0.232314
v -0.232314 0.874924 0.232313
v -0.232313 0.874924 -0.232313
v 0.356281 1.142355 -0.356280
v 0.356280 1.142355 0.356281
v -0.356281 1.142355 0.356280
v -0.356280 1.142355 -0.356280
v 0.186221 1.198496 -0.084299
v 0.186221 1.198496 0.288143
v -0.186221 1.198496 0.288143
v -0.186221 1.198496 -0.084299
v -0.232314 0.643216 0.232313
v -0.232313 0.643216 -0.232313
v 0.232313 0.643216 -0.232313
v 0.232313 0.643216 0.232314
v -0.305493 0.773166 0.096282
v -0.305493 0.773166 -0.028267
v -0.305493 0.711054 0.096282
v -0.305493 0.711054 -0.028267
v -0.180943 0.711054 0.096282
v -0.078420 0.719962 -0.291850
v -0.078420 0.798178 -0.291850
v 0.078420 0.798178 -0.291850
v 0.232313 0.643216 0.232314
v -0.305493 0.711054 0.096282
v -0.180943 0.711054 0.096282
v 0.315350 0.784369 -0.050731
v 0.315350 0.784369 0.050732
v 0.315350 0.733770 -0.050731
v 0.315350 0.733770 0.050732
v 0.315350 0.784369 -0.050731
v 0.048247 0.719962 -0.291850
v 0.068604 0.775033 0.276126
v -0.062183 0.775033 0.276126
v -0.062183 0.709810 0.276126
v 0.068604 0.709810 0.276126
v 0.068604 0.709810 0.276126
v 0.068604 0.709810 0.276126
v 0.068604 0.709810 0.276126
v 0.034531 0.749545 0.366354
v -0.011075 0.749545 0.366354
v -0.011075 0.726801 0.366354
v 0.034531 0.726801 0.366354
v 0.034531 0.726801 0.366354
v 0.034531 0.749545 0.366354
v -0.011075 0.749545 0.366354
v -0.011075 0.726801 0.366354
v 0.034531 0.726801 0.366354
v 0.034531 0.726801 0.366354
v 0.315350 0.784369 -0.050731
v 0.315350 0.784369 -0.050731
v 0.315350 0.784369 -0.050731
v 0.315350 0.784369 -0.050731
v -0.014247 0.751128 -0.381425
v 0.015926 0.767012 -0.381425
v -0.015926 0.767012 -0.381425
v -0.046099 0.751128 -0.381425
v -0.014247 0.751128 -0.381425
v 0.015926 0.767012 -0.381425
v -0.015926 0.767012 -0.381425
v -0.046099 0.751128 -0.381425
v 0.364875 0.768287 -0.018482
v 0.364875 0.768287 0.014900
v 0.364875 0.751639 -0.018482
v 0.364875 0.751639 0.014900
v 0.364875 0.768287 -0.018482
v 0.364875 0.768287 0.014900
v 0.364875 0.751639 -0.018482
v 0.364875 0.751639 0.014900
v 0.364875 0.768287 -0.018482
v 0.364875 0.768287 0.014900
v 0.364875 0.751639 -0.018482
v 0.364875 0.768287 -0.018482
v 0.364875 0.768287 0.014900
v 0.364875 0.751639 -0.018482
v 0.364875 0.751639 0.014900
v 0.364875 0.751639 -0.018482
v 0.364875 0.768287 0.014900
v 0.364875 0.768287 0.014900
v 0.364875 0.751639 -0.018482
v 0.364875 0.751639 0.014900
v 0.364875 0.768287 0.014900
v 0.364875 0.751639 -0.018482
v 0.364875 0.768287 0.014900
v 0.364875 0.751639 -0.018482
v 0.364875 0.768287 -0.018482
v 0.364875 0.768287 -0.018482
v 0.364875 0.768287 -0.018482
v 0.364875 0.768287 -0.018482
v 0.364875 0.751639 0.014900
v 0.364875 0.751639 -0.018482
v 0.364875 0.768287 0.014900
v 0.364875 0.768287 0.014900
v 0.364875 0.751639 -0.018482
v 0.364875 0.751639 0.014900
v 0.364875 0.768287 0.014900
v 0.364875 0.751639 -0.018482
v 0.364875 0.768287 0.014900
v 0.364875 0.751639 -0.018482
v -0.341331 0.749946 0.049721
v -0.341331 0.749946 0.018294
v -0.341331 0.734274 0.049721
v -0.341331 0.734274 0.018294
v -0.341331 0.749946 0.049721
v -0.341331 0.749946 0.018294
v -0.341331 0.734274 0.049721
v -0.341331 0.734274 0.018294
v 0.025342 1.322109 0.076580
v 0.025342 1.322109 0.127264
v -0.025342 1.322109 0.127264
v -0.025342 1.322109 0.076580
v 0.006064 1.442694 0.095858
v 0.006064 1.442694 0.107986
v -0.006064 1.442694 0.107986
v -0.006064 1.442694 0.095858
v -0.004238 1.499758 -0.315502
v 0.004238 1.499758 -0.315502
v -0.000577 1.496945 -0.319163
v 0.000577 1.496945 -0.319163
vn 0.0000 -1.0000 0.0000
vn 0.0065 1.0000 0.0000
vn 0.9666 0.2562 0.0000
vn -0.0000 0.2562 0.9666
vn -0.9666 0.2562 -0.0000
vn 0.0000 0.2562 -0.9666
vn -0.8807 0.0000 0.4738
vn -0.0000 1.0000 0.0065
vn 0.0000 1.0000 -0.0065
vn -0.0065 1.0000 -0.0000
vn -0.0000 -0.4206 0.9073
vn 0.3321 -0.0323 -0.9427
vn -0.2494 0.0000 0.9684
vn 0.0000 0.0000 1.0000
vn -0.3135 0.9496 0.0000
vn 0.9073 -0.4206 0.0000
vn -0.9073 -0.4206 -0.0000
vn 0.0000 -0.4206 -0.9073
vn 0.0000 0.7930 0.6093
vn 0.0000 0.9794 -0.2022
vn -0.0000 0.7718 0.6359
vn 0.3135 0.9496 0.0000
vn 0.9958 -0.0911 0.0000
vn -0.0000 -0.0911 0.9958
vn 0.0000 -0.0911 -0.9958
vn -0.9958 -0.0911 -0.0000
vn -0.6798 -0.7334 -0.0000
vn -0.0000 0.8949 0.4463
vn -0.8119 0.5839 -0.0000
vn -0.9413 0.0000 -0.3376
vn 0.7370 -0.6759 0.0000
vn -0.5438 0.8392 0.0000
vn -0.7924 0.0000 -0.6099
vn 0.9094 0.0000 0.4159
vn -0.5438 -0.8392 0.0000
vn -0.7924 0.0000 0.6099
vn 0.7370 0.6759 0.0000
vn 0.9094 0.0000 -0.4159
vn -0.8701 0.0000 0.4929
vn -0.0000 -0.9827 0.1851
vn -0.3608 0.0000 -0.9326
vn 0.0000 0.6129 -0.7901
vn 0.0000 -0.6129 -0.7901
vn -0.8504 0.2727 -0.4501
vn 0.0000 -0.9445 -0.3286
vn 0.7259 -0.4655 -0.5064
vn 0.0000 0.9445 -0.3286
vn -0.0000 0.4017 0.9158
vn 0.2585 0.0000 0.9660
vn -0.0000 -0.5496 0.8354
vn -0.0000 0.9623 0.2718
vn 0.9355 0.0000 0.3533
vn 0.0000 0.0000 -1.0000
vn 0.3089 0.9511 0.0000
vn 0.3394 -0.9406 0.0000
vn 0.5457 0.0000 -0.8380
vn 0.5862 0.0000 0.8102
vn 1.0000 0.0000 0.0000
vn -1.0000 0.0000 0.0000
vn 0.0000 0.1579 0.9875
vn 0.6093 0.7930 0.0000
vn -0.6093 0.7930 0.0000
vn 0.7294 0.6422 0.2359
vn 0.0000 1.0000 0.0000
vn 0.9875 0.1579 0.0000
vn -0.9875 0.1579 0.0000
vn 0.0000 0.1579 -0.9875
vn 0.0000 0.7929 -0.6093
vn -0.7294 0.6422 0.2359
vn 0.0000 -0.6088 -0.7933
vn 0.0000 0.9147 0.4041
usemtl Material
s off
f 1//1 2//1 3//1 4//1
f 8//2 7//2 11//2 12//2
f 1//3 5//3 6//3 2//3
f 2//4 6//4 7//4 3//4
f 3//5 7//5 8//5 4//5
f 5//6 1//6 4//6 8//6
f 25//7 15//7 29//7 31//7
f 5//8 8//8 12//8 9//8
f 7//9 6//9 10//9 11//9
f 6//10 5//10 9//10 10//10
f 15//11 14//11 18//11 19//11
f 13//12 27//12 45//12 36//12
f 15//13 25//13 48//13 47//13
f 31//14 33//14 39//14 38//14
f 20//15 19//15 23//15 24//15
f 14//16 13//16 17//16 18//16
f 16//17 15//17 19//17 20//17
f 13//18 16//18 20//18 17//18
f 23//19 22//19 122//19 123//19
f 17//20 20//20 24//20 21//20
f 19//21 18//21 22//21 23//21
f 18//22 17//22 21//22 22//22
f 10//23 9//23 27//23 28//23
f 11//24 10//24 28//24 25//24
f 9//25 12//25 26//25 27//25
f 12//26 11//26 25//26 26//26
f 26//27 25//27 31//27 32//27
f 25//28 28//28 33//28 31//28
f 15//29 16//29 30//29 29//29
f 16//30 26//30 32//30 30//30
f 28//31 27//31 42//31 43//31
f 29//32 30//32 114//32 113//32
f 30//33 32//33 116//33 114//33
f 14//34 28//34 43//34 41//34
f 32//35 31//35 115//35 116//35
f 33//14 28//14 37//14 39//14
f 31//36 29//36 113//36 115//36
f 13//37 14//37 41//37 40//37
f 27//38 13//38 40//38 42//38
f 47//39 48//39 55//39 54//39
f 48//40 49//40 56//40 55//40
f 26//41 16//41 35//41 34//41
f 16//42 13//42 36//42 35//42
f 27//43 26//43 34//43 45//43
f 34//44 35//44 73//44 74//44
f 45//45 34//45 74//45 71//45
f 36//46 45//46 71//46 72//46
f 35//47 36//47 72//47 73//47
f 14//48 15//48 47//48 46//48
f 37//14 28//14 49//14 50//14
f 28//49 14//49 46//49 49//49
f 25//50 28//50 49//50 48//50
f 46//51 47//51 54//51 53//51
f 49//52 46//52 53//52 56//52
f 50//14 49//14 56//14 57//14
f 52//14 50//14 57//14 62//14
f 57//14 56//14 61//14 62//14
f 53//14 54//14 59//14 58//14
f 60//14 61//14 58//14 59//14
f 54//14 55//14 60//14 59//14
f 56//14 53//14 58//14 61//14
f 55//14 56//14 61//14 60//14
f 51//14 52//14 62//14 61//14
f 74//14 73//14 69//14 70//14
f 71//14 74//14 70//14 67//14
f 72//14 71//14 67//14 68//14
f 67//53 70//53 69//53 68//53
f 73//14 72//14 68//14 69//14
f 44//14 64//14 100//14 79//14
f 40//54 41//54 76//54 75//54
f 43//55 42//55 77//55 78//55
f 63//14 40//14 75//14 99//14
f 66//14 65//14 101//14 102//14
f 64//14 66//14 102//14 100//14
f 42//56 40//56 75//56 77//56
f 65//14 63//14 99//14 101//14
f 41//57 43//57 78//57 76//57
f 82//14 80//14 92//14 94//14
f 82//58 81//58 79//58 80//58
f 85//14 88//14 98//14 96//14
f 80//14 87//14 97//14 92//14
f 85//14 83//14 86//14 88//14
f 83//14 84//14 87//14 86//14
f 77//14 75//14 83//14 85//14
f 79//14 81//14 88//14 86//14
f 75//14 76//14 84//14 83//14
f 80//14 79//14 86//14 87//14
f 76//14 78//14 89//14 91//14
f 95//14 91//14 105//14 109//14
f 75//14 83//14 101//14 99//14
f 93//14 94//14 108//14 107//14
f 98//14 93//14 107//14 112//14
f 88//14 81//14 93//14 98//14
f 78//14 77//14 90//14 89//14
f 77//14 85//14 96//14 90//14
f 87//14 84//14 95//14 97//14
f 81//14 82//14 94//14 93//14
f 84//14 76//14 91//14 95//14
f 103//14 104//14 107//14 108//14
f 105//14 103//14 108//14 106//14
f 107//14 104//14 110//14 112//14
f 105//14 106//14 111//14 109//14
f 92//14 97//14 111//14 106//14
f 86//14 79//14 100//14 102//14
f 83//14 86//14 102//14 101//14
f 90//14 96//14 110//14 104//14
f 96//14 98//14 112//14 110//14
f 91//14 89//14 103//14 105//14
f 89//14 90//14 104//14 103//14
f 97//14 95//14 109//14 111//14
f 94//14 92//14 106//14 108//14
f 120//59 119//59 117//59 118//59
f 113//14 114//14 118//14 117//14
f 116//14 115//14 119//14 120//14
f 115//14 113//14 117//14 119//14
f 114//14 116//14 120//14 118//14
f 123//60 122//60 126//60 127//60
f 22//61 21//61 121//61 122//61
f 24//62 23//62 123//62 124//62
f 121//63 21//63 129//63 131//63
f 125//64 128//64 127//64 126//64
f 122//65 121//65 125//65 126//65
f 124//66 123//66 127//66 128//66
f 121//67 124//67 128//67 125//67
f 129//68 130//68 132//68 131//68
f 24//69 124//69 132//69 130//69
f 21//70 24//70 130//70 129//70
f 124//71 121//71 131//71 132//71
