# Blender v2.79 (sub 0) OBJ File: ''
# www.blender.org
mtllib Tower.mtl
o Cube
v 0.448367 -0.448367 -0.448367
v 0.448367 -0.448367 0.448367
v -0.448367 -0.448367 0.448367
v -0.448367 -0.448367 -0.448368
v 0.386006 -0.178180 -0.386006
v 0.386006 -0.178180 0.386007
v -0.386006 -0.178180 0.386006
v -0.386006 -0.178180 -0.386006
v 0.017896 1.502277 -0.017896
v 0.017896 1.502277 0.017897
v -0.017896 1.502277 0.017897
v -0.017896 1.502277 -0.017896
v 0.386006 -0.178180 -0.386006
v 0.386006 -0.178180 0.386007
v -0.386006 -0.178180 0.386006
v -0.386006 -0.178180 -0.386006
vn 0.0000 -1.0000 0.0000
vn -0.9768 0.2140 -0.0000
vn 0.9744 0.2249 0.0000
vn -0.0000 0.2249 0.9744
vn -0.9744 0.2249 -0.0000
vn 0.0000 0.2249 -0.9744
vn 0.0000 1.0000 0.0000
vn 0.0000 0.2140 -0.9768
vn -0.0000 0.2140 0.9768
vn 0.9768 0.2140 0.0000
vn 0.0000 0.0000 1.0000
usemtl Material
s off
f 1//1 2//1 3//1 4//1
f 8//2 7//2 11//2 12//2
f 1//3 5//3 6//3 2//3
f 2//4 6//4 7//4 3//4
f 3//5 7//5 8//5 4//5
f 5//6 1//6 4//6 8//6
f 9//7 12//7 11//7 10//7
f 5//8 8//8 12//8 9//8
f 7//9 6//9 10//9 11//9
f 6//10 5//10 9//10 10//10
f 8//11 7//11 15//11 16//11
f 8//11 5//11 13//11 16//11
f 6//11 7//11 15//11 14//11
f 5//11 6//11 14//11 13//11
